{"title":"Stone.2010.BRRIP.720P.H264-ZEKTORM","uid":6080594,"size":2197671159,"categoryP":"video","categoryS":"hd___movies","magnet":"?xt=urn:btih:a685c316fac3d566c246ba82f8f0f128fcaec7f8&amp;dn=Stone.2010.BRRIP.720P.H264-ZEKTORM&amp;tr=udp%3A%2F%2Ftracker.openbittorrent.com%3A80&amp;tr=udp%3A%2F%2Fopen.demonii.com%3A1337&amp;tr=udp%3A%2F%2Ftracker.coppersurfer.tk%3A6969&amp;tr=udp%3A%2F%2Fexodus.desync.com%3A6969","seeders":0,"leechers":0,"uploader":"blowley","files":4,"time":1294100226,"description":"Title                            : Stone\nYear                             : 2010\nGenre                            : Drama | Thriller\niMDB URL                         : http://www.imdb.com/title/tt1423995/\n\nComplete name                    : Stone.2010.BRRIP.720P.H264-ZEKTORM.mp4\nFormat                           : MPEG-4\nFormat profile                   : Base Media\nCodec ID                         : isom\nFile size                        : 2.05 GiB\nDuration                         : 1h 45mn\nOverall bit rate                 : 2790 Kbps\nSubtitles                        : English (Format: srt)\n\nVideo\nID                               : 1\nFormat                           : AVC\nFormat/Info                      : Advanced Video Codec\nFormat profile                   : &lt;a class=&quot;__cf_email__&quot; href=&quot;/cdn-cgi/l/email-protection&quot; data-cfemail=&quot;175f7e707f575b233927&quot;&gt;[email&amp;#160;protected]&lt;/a&gt;&lt;script cf-hash='f9e31' type=&quot;text/javascript&quot;&gt;\n/* &lt;![CDATA[ */!function(){try{var t=&quot;currentScript&quot;in document?document.currentScript:function(){for(var t=document.getElementsByTagName(&quot;script&quot;),e=t.length;e--;)if(t[e].getAttribute(&quot;cf-hash&quot;))return t[e]}();if(t&amp;&amp;t.previousSibling){var e,r,n,i,c=t.previousSibling,a=c.getAttribute(&quot;data-cfemail&quot;);if(a){for(e=&quot;&quot;,r=parseInt(a.substr(0,2),16),n=2;a.length-n;n+=2)i=parseInt(a.substr(n,2),16)^r,e+=String.fromCharCode(i);e=document.createTextNode(e),c.parentNode.replaceChild(e,c)}}}catch(u){}}();/* ]]&gt; */&lt;/script&gt;\nFormat settings, CABAC           : Yes\nFormat settings, ReFrames        : 5 frames\nCodec ID                         : avc1\nCodec ID/Info                    : Advanced Video Coding\nDuration                         : 1h 45mn\nBit rate mode                    : Variable\nBit rate                         : 2 609 Kbps\nMaximum bit rate                 : 16.3 Mbps\nWidth                            : 1280 pixels\nHeight                           : 528 pixels\nDisplay aspect ratio             : 2.424\nFrame rate mode                  : Constant\nFrame rate                       : 23.976 fps\nResolution                       : 24 bits\nColorimetry                      : 4:2:0\nScan type                        : Progressive\nBits/(Pixel*Frame)               : 0.161\nStream size                      : 1.91 GiB (93%)\nTitle                            : Video\nWriting library                  : x264\n\nAudio\nID                               : 2\nFormat                           : AAC\nFormat/Info                      : Advanced Audio Codec\nFormat version                   : Version 4\nFormat profile                   : LC\nFormat settings, SBR             : No\nCodec ID                         : 40\nDuration                         : 1h 45mn\nBit rate mode                    : Variable\nBit rate                         : 184 Kbps\nMaximum bit rate                 : 225 Kbps\nChannel(s)                       : 6 channels\nChannel positions                : Front: L C R, Rear: L R, LFE\nSampling rate                    : 48.0 KHz\nResolution                       : 16 bits\nStream size                      : 138 MiB (7%)\nLanguage                         : English\n\n\nScreenshots:\n &lt;a href=&quot;\nhttp://img214.imageshack.us/img214/6822/snapst1.png&quot; rel=&quot;nofollow&quot; target=&quot;_NEW&quot;&gt;\nhttp://img214.imageshack.us/img214/6822/snapst1.png&lt;/a&gt;\n &lt;a href=&quot;\nhttp://img839.imageshack.us/img839/3083/snapst2.png&quot; rel=&quot;nofollow&quot; target=&quot;_NEW&quot;&gt;\nhttp://img839.imageshack.us/img839/3083/snapst2.png&lt;/a&gt;\n &lt;a href=&quot;\nhttp://img255.imageshack.us/img255/8128/snapst3.png&quot; rel=&quot;nofollow&quot; target=&quot;_NEW&quot;&gt;\nhttp://img255.imageshack.us/img255/8128/snapst3.png&lt;/a&gt;\n &lt;a href=&quot;\nhttp://img259.imageshack.us/img259/6227/snapst4.png&quot; rel=&quot;nofollow&quot; target=&quot;_NEW&quot;&gt;\nhttp://img259.imageshack.us/img259/6227/snapst4.png&lt;/a&gt;\n","torrent":{"xt":"urn:btih:a685c316fac3d566c246ba82f8f0f128fcaec7f8","amp;dn":"Stone.2010.BRRIP.720P.H264-ZEKTORM","amp;tr":["udp%3A%2F%2Ftracker.openbittorrent.com%3A80","udp%3A%2F%2Fopen.demonii.com%3A1337","udp%3A%2F%2Ftracker.coppersurfer.tk%3A6969","udp%3A%2F%2Fexodus.desync.com%3A6969"],"infoHash":"a685c316fac3d566c246ba82f8f0f128fcaec7f8","infoHashBuffer":{"type":"Buffer","data":[166,133,195,22,250,195,213,102,194,70,186,130,248,240,241,40,252,174,199,248]},"announce":[],"urlList":[]}}